<svg width="43" height="10" viewBox="0 0 43 10" fill="none" xmlns="http://www.w3.org/2000/svg">
<path d="M5.67139 1.02832H1.90088V8H0.864258V0.179688H5.67139V1.02832ZM12.5947 4.34229C12.5947 5.10856 12.4658 5.77816 12.208 6.35107C11.9502 6.92041 11.585 7.35547 11.1123 7.65625C10.6396 7.95703 10.0882 8.10742 9.45801 8.10742C8.84212 8.10742 8.29606 7.95703 7.81982 7.65625C7.34359 7.35189 6.97298 6.92041 6.70801 6.36182C6.44661 5.79964 6.31234 5.14974 6.30518 4.41211V3.84814C6.30518 3.09619 6.43587 2.43197 6.69727 1.85547C6.95866 1.27897 7.32747 0.838542 7.80371 0.53418C8.28353 0.226237 8.83138 0.0722656 9.44727 0.0722656C10.0739 0.0722656 10.6253 0.224447 11.1016 0.528809C11.5814 0.82959 11.9502 1.26823 12.208 1.84473C12.4658 2.41764 12.5947 3.08545 12.5947 3.84814V4.34229ZM11.5688 3.8374C11.5688 2.90999 11.3826 2.19922 11.0103 1.70508C10.6379 1.20736 10.1169 0.958496 9.44727 0.958496C8.79557 0.958496 8.28174 1.20736 7.90576 1.70508C7.53337 2.19922 7.3418 2.88672 7.33105 3.76758V4.34229C7.33105 5.24105 7.51904 5.94824 7.89502 6.46387C8.27458 6.97591 8.79557 7.23193 9.45801 7.23193C10.124 7.23193 10.6396 6.99023 11.0049 6.50684C11.3701 6.01986 11.5581 5.3234 11.5688 4.41748V3.8374ZM15.1729 4.93848V8H14.1416V0.179688H17.0259C17.8817 0.179688 18.5513 0.398112 19.0347 0.834961C19.5216 1.27181 19.7651 1.8501 19.7651 2.56982C19.7651 3.32894 19.527 3.91439 19.0508 4.32617C18.5781 4.73438 17.8996 4.93848 17.0151 4.93848H15.1729ZM15.1729 4.09521H17.0259C17.5773 4.09521 17.9998 3.96631 18.2935 3.7085C18.5871 3.4471 18.7339 3.07113 18.7339 2.58057C18.7339 2.11507 18.5871 1.74268 18.2935 1.46338C17.9998 1.18408 17.597 1.03906 17.085 1.02832H15.1729V4.09521ZM27.0967 4.34229C27.0967 5.10856 26.9678 5.77816 26.71 6.35107C26.4521 6.92041 26.0869 7.35547 25.6143 7.65625C25.1416 7.95703 24.5902 8.10742 23.96 8.10742C23.3441 8.10742 22.798 7.95703 22.3218 7.65625C21.8455 7.35189 21.4749 6.92041 21.21 6.36182C20.9486 5.79964 20.8143 5.14974 20.8071 4.41211V3.84814C20.8071 3.09619 20.9378 2.43197 21.1992 1.85547C21.4606 1.27897 21.8294 0.838542 22.3057 0.53418C22.7855 0.226237 23.3333 0.0722656 23.9492 0.0722656C24.5758 0.0722656 25.1273 0.224447 25.6035 0.528809C26.0833 0.82959 26.4521 1.26823 26.71 1.84473C26.9678 2.41764 27.0967 3.08545 27.0967 3.84814V4.34229ZM26.0708 3.8374C26.0708 2.90999 25.8846 2.19922 25.5122 1.70508C25.1398 1.20736 24.6188 0.958496 23.9492 0.958496C23.2975 0.958496 22.7837 1.20736 22.4077 1.70508C22.0353 2.19922 21.8438 2.88672 21.833 3.76758V4.34229C21.833 5.24105 22.021 5.94824 22.397 6.46387C22.7765 6.97591 23.2975 7.23193 23.96 7.23193C24.626 7.23193 25.1416 6.99023 25.5068 6.50684C25.8721 6.01986 26.0601 5.3234 26.0708 4.41748V3.8374ZM35.4971 9.91748H34.4712V8H28.8584V9.92285H27.8271L27.8218 7.15674H28.4609C28.7975 6.77718 29.0643 6.26872 29.2612 5.63135C29.4618 4.9904 29.5871 4.28857 29.6372 3.52588L29.8091 0.179688H34.4873V7.15674H35.5078L35.4971 9.91748ZM29.6372 7.15674H33.4507V1.02832H30.8027L30.6899 3.32715C30.6434 4.22591 30.5234 4.99219 30.3301 5.62598C30.1403 6.25977 29.9093 6.77002 29.6372 7.15674ZM41.1367 5.95898H37.8604L37.1245 8H36.061L39.0474 0.179688H39.9497L42.9414 8H41.8833L41.1367 5.95898ZM38.1719 5.11035H40.8306L39.4985 1.45264L38.1719 5.11035Z" fill="#070716"/>
</svg>
