<svg width="84" height="9" viewBox="0 0 84 9" fill="none" xmlns="http://www.w3.org/2000/svg">
<path d="M0.508301 8V0.179688H3.06494C3.91357 0.179688 4.55094 0.355143 4.97705 0.706055C5.40674 1.05697 5.62158 1.57617 5.62158 2.26367C5.62158 2.62891 5.51774 2.95296 5.31006 3.23584C5.10238 3.51514 4.8195 3.73177 4.46143 3.88574C4.88395 4.00391 5.21696 4.22949 5.46045 4.5625C5.70752 4.89193 5.83105 5.28581 5.83105 5.74414C5.83105 6.44596 5.60368 6.9974 5.14893 7.39844C4.69417 7.79948 4.05143 8 3.2207 8H0.508301ZM1.53955 4.34229V7.15674H3.24219C3.72201 7.15674 4.09977 7.0332 4.37549 6.78613C4.65479 6.53548 4.79443 6.19173 4.79443 5.75488C4.79443 4.81315 4.28239 4.34229 3.2583 4.34229H1.53955ZM1.53955 3.51514H3.09717C3.54834 3.51514 3.9082 3.40234 4.17676 3.17676C4.44889 2.95117 4.58496 2.64502 4.58496 2.2583C4.58496 1.82861 4.45964 1.51709 4.20898 1.32373C3.95833 1.12679 3.57699 1.02832 3.06494 1.02832H1.53955V3.51514ZM13.3774 4.34229C13.3774 5.10856 13.2485 5.77816 12.9907 6.35107C12.7329 6.92041 12.3677 7.35547 11.895 7.65625C11.4224 7.95703 10.8709 8.10742 10.2407 8.10742C9.62484 8.10742 9.07878 7.95703 8.60254 7.65625C8.1263 7.35189 7.7557 6.92041 7.49072 6.36182C7.22933 5.79964 7.09505 5.14974 7.08789 4.41211V3.84814C7.08789 3.09619 7.21859 2.43197 7.47998 1.85547C7.74137 1.27897 8.11019 0.838542 8.58643 0.53418C9.06624 0.226237 9.6141 0.0722656 10.23 0.0722656C10.8566 0.0722656 11.408 0.224447 11.8843 0.528809C12.3641 0.82959 12.7329 1.26823 12.9907 1.84473C13.2485 2.41764 13.3774 3.08545 13.3774 3.84814V4.34229ZM12.3516 3.8374C12.3516 2.90999 12.1654 2.19922 11.793 1.70508C11.4206 1.20736 10.8996 0.958496 10.23 0.958496C9.57829 0.958496 9.06445 1.20736 8.68848 1.70508C8.31608 2.19922 8.12451 2.88672 8.11377 3.76758V4.34229C8.11377 5.24105 8.30176 5.94824 8.67773 6.46387C9.05729 6.97591 9.57829 7.23193 10.2407 7.23193C10.9067 7.23193 11.4224 6.99023 11.7876 6.50684C12.1528 6.01986 12.3408 5.3234 12.3516 4.41748V3.8374ZM18.9365 2.27979C18.9365 1.86442 18.7843 1.53499 18.48 1.2915C18.1792 1.04443 17.7549 0.920898 17.207 0.920898C16.7487 0.920898 16.3638 1.04801 16.0522 1.30225C15.7443 1.5529 15.5903 1.86442 15.5903 2.23682H14.5591C14.5591 1.82145 14.6719 1.44906 14.8975 1.11963C15.1266 0.790202 15.4453 0.53418 15.8535 0.351562C16.2617 0.165365 16.7129 0.0722656 17.207 0.0722656C18.0807 0.0722656 18.7593 0.269206 19.2427 0.663086C19.7261 1.05339 19.9678 1.59766 19.9678 2.2959C19.9678 2.65755 19.8568 2.98698 19.6348 3.28418C19.4128 3.58138 19.103 3.81592 18.7056 3.98779C19.6258 4.29574 20.0859 4.90625 20.0859 5.81934C20.0859 6.52116 19.8245 7.07796 19.3018 7.48975C18.779 7.90153 18.0807 8.10742 17.207 8.10742C16.6878 8.10742 16.2152 8.01611 15.7891 7.8335C15.3665 7.6473 15.0371 7.38411 14.8008 7.04395C14.5645 6.70378 14.4463 6.29915 14.4463 5.83008H15.4775C15.4775 6.24186 15.6405 6.58561 15.9663 6.86133C16.2922 7.13346 16.7057 7.26953 17.207 7.26953C17.7692 7.26953 18.2168 7.13883 18.5498 6.87744C18.8864 6.61605 19.0547 6.27051 19.0547 5.84082C19.0547 4.92415 18.4871 4.45687 17.3521 4.43896H16.3853V3.59033H17.3467C17.8695 3.57959 18.2651 3.46143 18.5337 3.23584C18.8022 3.01025 18.9365 2.69157 18.9365 2.27979ZM22.7876 0.179688L25.3442 6.56055L27.9009 0.179688H29.2383V8H28.207V4.95459L28.3037 1.66748L25.7363 8H24.9468L22.3848 1.68359L22.4868 4.95459V8H21.4556V0.179688H22.7876ZM37.0747 4.34229C37.0747 5.10856 36.9458 5.77816 36.688 6.35107C36.4302 6.92041 36.0649 7.35547 35.5923 7.65625C35.1196 7.95703 34.5682 8.10742 33.938 8.10742C33.3221 8.10742 32.776 7.95703 32.2998 7.65625C31.8236 7.35189 31.453 6.92041 31.188 6.36182C30.9266 5.79964 30.7923 5.14974 30.7852 4.41211V3.84814C30.7852 3.09619 30.9159 2.43197 31.1772 1.85547C31.4386 1.27897 31.8075 0.838542 32.2837 0.53418C32.7635 0.226237 33.3114 0.0722656 33.9272 0.0722656C34.5539 0.0722656 35.1053 0.224447 35.5815 0.528809C36.0614 0.82959 36.4302 1.26823 36.688 1.84473C36.9458 2.41764 37.0747 3.08545 37.0747 3.84814V4.34229ZM36.0488 3.8374C36.0488 2.90999 35.8626 2.19922 35.4902 1.70508C35.1178 1.20736 34.5968 0.958496 33.9272 0.958496C33.2756 0.958496 32.7617 1.20736 32.3857 1.70508C32.0133 2.19922 31.8218 2.88672 31.811 3.76758V4.34229C31.811 5.24105 31.999 5.94824 32.375 6.46387C32.7546 6.97591 33.2756 7.23193 33.938 7.23193C34.604 7.23193 35.1196 6.99023 35.4849 6.50684C35.8501 6.01986 36.0381 5.3234 36.0488 4.41748V3.8374ZM43.998 4.43359H43.1602V8H42.1289V4.43359H41.2427L39.0298 8H37.7407L40.3726 3.875L37.9448 0.179688H39.1641L41.2427 3.57422H42.1289V0.179688H43.1602V3.57422H44.0088L46.0874 0.179688H47.3013L44.8735 3.86963L47.5054 8H46.2217L43.998 4.43359ZM54.5039 8H53.4673V4.38525H49.5249V8H48.4937V0.179688H49.5249V3.54199H53.4673V0.179688H54.5039V8ZM62.3511 4.34229C62.3511 5.10856 62.2222 5.77816 61.9644 6.35107C61.7065 6.92041 61.3413 7.35547 60.8687 7.65625C60.396 7.95703 59.8446 8.10742 59.2144 8.10742C58.5985 8.10742 58.0524 7.95703 57.5762 7.65625C57.0999 7.35189 56.7293 6.92041 56.4644 6.36182C56.203 5.79964 56.0687 5.14974 56.0615 4.41211V3.84814C56.0615 3.09619 56.1922 2.43197 56.4536 1.85547C56.715 1.27897 57.0838 0.838542 57.5601 0.53418C58.0399 0.226237 58.5877 0.0722656 59.2036 0.0722656C59.8302 0.0722656 60.3817 0.224447 60.8579 0.528809C61.3377 0.82959 61.7065 1.26823 61.9644 1.84473C62.2222 2.41764 62.3511 3.08545 62.3511 3.84814V4.34229ZM61.3252 3.8374C61.3252 2.90999 61.139 2.19922 60.7666 1.70508C60.3942 1.20736 59.8732 0.958496 59.2036 0.958496C58.5519 0.958496 58.0381 1.20736 57.6621 1.70508C57.2897 2.19922 57.0981 2.88672 57.0874 3.76758V4.34229C57.0874 5.24105 57.2754 5.94824 57.6514 6.46387C58.0309 6.97591 58.5519 7.23193 59.2144 7.23193C59.8804 7.23193 60.396 6.99023 60.7612 6.50684C61.1265 6.01986 61.3145 5.3234 61.3252 4.41748V3.8374ZM69.6504 5.51855C69.5537 6.3457 69.2476 6.98486 68.7319 7.43604C68.2199 7.88363 67.5378 8.10742 66.6855 8.10742C65.7617 8.10742 65.0205 7.7762 64.4619 7.11377C63.9069 6.45133 63.6294 5.5651 63.6294 4.45508V3.70312C63.6294 2.97624 63.7583 2.33708 64.0161 1.78564C64.2775 1.23421 64.6463 0.811686 65.1226 0.518066C65.5988 0.220866 66.1502 0.0722656 66.7769 0.0722656C67.6076 0.0722656 68.2736 0.305013 68.7749 0.770508C69.2762 1.23242 69.568 1.87337 69.6504 2.69336H68.6138C68.5243 2.07031 68.3291 1.61914 68.0283 1.33984C67.7311 1.06055 67.314 0.920898 66.7769 0.920898C66.118 0.920898 65.6006 1.16439 65.2246 1.65137C64.8522 2.13835 64.666 2.83122 64.666 3.72998V4.4873C64.666 5.33594 64.8433 6.0109 65.1978 6.51221C65.5522 7.01351 66.0482 7.26416 66.6855 7.26416C67.2585 7.26416 67.6971 7.13525 68.0015 6.87744C68.3094 6.61605 68.5135 6.16309 68.6138 5.51855H69.6504ZM76.3052 1.02832H73.7915V8H72.7656V1.02832H70.2573V0.179688H76.3052V1.02832ZM82.396 0.179688H83.4272V8H82.396V1.97363L78.5449 8H77.5083V0.179688H78.5449V6.20605L82.396 0.179688Z" fill="#070716"/>
</svg>
